{
	"patcher" : 	{
		"fileversion" : 1,
		"appversion" : 		{
			"major" : 7,
			"minor" : 3,
			"revision" : 4,
			"architecture" : "x86",
			"modernui" : 1
		}
,
		"rect" : [ 34.0, 78.0, 1196.0, 938.0 ],
		"bgcolor" : [ 0.862745, 0.870588, 0.878431, 1.0 ],
		"bglocked" : 0,
		"openinpresentation" : 1,
		"default_fontsize" : 12.0,
		"default_fontface" : 0,
		"default_fontname" : "Arial",
		"gridonopen" : 1,
		"gridsize" : [ 15.0, 15.0 ],
		"gridsnaponopen" : 1,
		"objectsnaponopen" : 1,
		"statusbarvisible" : 2,
		"toolbarvisible" : 1,
		"lefttoolbarpinned" : 0,
		"toptoolbarpinned" : 0,
		"righttoolbarpinned" : 0,
		"bottomtoolbarpinned" : 0,
		"toolbars_unpinned_last_save" : 0,
		"tallnewobj" : 0,
		"boxanimatetime" : 200,
		"enablehscroll" : 1,
		"enablevscroll" : 1,
		"devicewidth" : 0.0,
		"description" : "",
		"digest" : "",
		"tags" : "",
		"style" : "",
		"subpatcher_template" : "",
		"boxes" : [ 			{
				"box" : 				{
					"fontface" : 1,
					"id" : "obj-25",
					"maxclass" : "comment",
					"numinlets" : 1,
					"numoutlets" : 0,
					"patching_rect" : [ 518.0, 594.0, 47.0, 20.0 ],
					"presentation" : 1,
					"presentation_rect" : [ 349.0, 110.0, 46.0, 20.0 ],
					"style" : "",
					"text" : "cam 2"
				}

			}
, 			{
				"box" : 				{
					"fontface" : 1,
					"id" : "obj-24",
					"maxclass" : "comment",
					"numinlets" : 1,
					"numoutlets" : 0,
					"patching_rect" : [ 264.0, 594.0, 47.0, 20.0 ],
					"presentation" : 1,
					"presentation_rect" : [ 143.0, 110.0, 46.0, 20.0 ],
					"style" : "",
					"text" : "cam 1"
				}

			}
, 			{
				"box" : 				{
					"id" : "obj-22",
					"maxclass" : "newobj",
					"numinlets" : 1,
					"numoutlets" : 1,
					"outlettype" : [ "" ],
					"patching_rect" : [ 471.0, 109.0, 105.0, 22.0 ],
					"style" : "",
					"text" : "prepend camera2"
				}

			}
, 			{
				"box" : 				{
					"id" : "obj-10",
					"maxclass" : "newobj",
					"numinlets" : 1,
					"numoutlets" : 1,
					"outlettype" : [ "" ],
					"patching_rect" : [ 352.0, 109.0, 105.0, 22.0 ],
					"style" : "",
					"text" : "prepend camera1"
				}

			}
, 			{
				"box" : 				{
					"id" : "obj-69",
					"maxclass" : "newobj",
					"numinlets" : 1,
					"numoutlets" : 1,
					"outlettype" : [ "" ],
					"patching_rect" : [ 414.0, 146.0, 64.0, 22.0 ],
					"style" : "",
					"text" : "append cr"
				}

			}
, 			{
				"box" : 				{
					"bgmode" : 0,
					"border" : 0,
					"clickthrough" : 0,
					"embed" : 1,
					"enablehscroll" : 0,
					"enablevscroll" : 0,
					"id" : "obj-21",
					"lockeddragscroll" : 0,
					"maxclass" : "bpatcher",
					"numinlets" : 1,
					"numoutlets" : 1,
					"offset" : [ 0.0, 0.0 ],
					"outlettype" : [ "" ],
					"patcher" : 					{
						"fileversion" : 1,
						"appversion" : 						{
							"major" : 7,
							"minor" : 3,
							"revision" : 4,
							"architecture" : "x86",
							"modernui" : 1
						}
,
						"rect" : [ 784.0, 78.0, 663.0, 938.0 ],
						"bglocked" : 0,
						"openinpresentation" : 1,
						"default_fontsize" : 12.0,
						"default_fontface" : 0,
						"default_fontname" : "Arial",
						"gridonopen" : 1,
						"gridsize" : [ 15.0, 15.0 ],
						"gridsnaponopen" : 1,
						"objectsnaponopen" : 1,
						"statusbarvisible" : 2,
						"toolbarvisible" : 1,
						"lefttoolbarpinned" : 0,
						"toptoolbarpinned" : 0,
						"righttoolbarpinned" : 0,
						"bottomtoolbarpinned" : 0,
						"toolbars_unpinned_last_save" : 0,
						"tallnewobj" : 0,
						"boxanimatetime" : 200,
						"enablehscroll" : 1,
						"enablevscroll" : 1,
						"devicewidth" : 0.0,
						"description" : "",
						"digest" : "",
						"tags" : "",
						"style" : "",
						"subpatcher_template" : "",
						"boxes" : [ 							{
								"box" : 								{
									"id" : "obj-7",
									"maxclass" : "newobj",
									"numinlets" : 1,
									"numoutlets" : 2,
									"outlettype" : [ "jit_matrix", "" ],
									"patching_rect" : [ 108.0, 166.0, 73.0, 22.0 ],
									"style" : "",
									"text" : "jit.rgb2luma"
								}

							}
, 							{
								"box" : 								{
									"id" : "obj-3",
									"maxclass" : "newobj",
									"numinlets" : 1,
									"numoutlets" : 1,
									"outlettype" : [ "" ],
									"patching_rect" : [ 271.0, 46.0, 79.0, 22.0 ],
									"style" : "",
									"text" : "loadmess 15"
								}

							}
, 							{
								"box" : 								{
									"id" : "obj-12",
									"maxclass" : "newobj",
									"numinlets" : 1,
									"numoutlets" : 1,
									"outlettype" : [ "" ],
									"patching_rect" : [ 294.0, 386.0, 85.0, 22.0 ],
									"style" : "",
									"text" : "loadmess 127"
								}

							}
, 							{
								"box" : 								{
									"id" : "obj-9",
									"linecount" : 2,
									"maxclass" : "comment",
									"numinlets" : 1,
									"numoutlets" : 0,
									"patching_rect" : [ 86.0, 623.0, 75.0, 33.0 ],
									"presentation" : 1,
									"presentation_rect" : [ 24.0, 162.0, 112.0, 20.0 ],
									"style" : "",
									"text" : "motion | threshhold"
								}

							}
, 							{
								"box" : 								{
									"id" : "obj-110",
									"linecount" : 2,
									"maxclass" : "comment",
									"numinlets" : 1,
									"numoutlets" : 0,
									"patching_rect" : [ 271.0, 264.0, 121.0, 33.0 ],
									"presentation" : 1,
									"presentation_linecount" : 2,
									"presentation_rect" : [ 125.0, 51.0, 81.0, 33.0 ],
									"style" : "",
									"text" : "# of samples to smooth"
								}

							}
, 							{
								"box" : 								{
									"id" : "obj-67",
									"maxclass" : "button",
									"numinlets" : 1,
									"numoutlets" : 1,
									"outlettype" : [ "bang" ],
									"patching_rect" : [ 281.0, 602.0, 24.0, 24.0 ],
									"style" : ""
								}

							}
, 							{
								"box" : 								{
									"id" : "obj-65",
									"maxclass" : "button",
									"numinlets" : 1,
									"numoutlets" : 1,
									"outlettype" : [ "bang" ],
									"patching_rect" : [ 255.0, 602.0, 24.0, 24.0 ],
									"style" : ""
								}

							}
, 							{
								"box" : 								{
									"id" : "obj-63",
									"maxclass" : "newobj",
									"numinlets" : 3,
									"numoutlets" : 1,
									"outlettype" : [ "" ],
									"patching_rect" : [ 255.0, 633.0, 90.0, 22.0 ],
									"saved_object_attributes" : 									{
										"filename" : "timestamp.js",
										"parameter_enable" : 0
									}
,
									"style" : "",
									"text" : "js timestamp.js"
								}

							}
, 							{
								"box" : 								{
									"id" : "obj-22",
									"maxclass" : "newobj",
									"numinlets" : 1,
									"numoutlets" : 3,
									"outlettype" : [ "", "int", "int" ],
									"patching_rect" : [ 255.0, 572.0, 50.0, 22.0 ],
									"style" : "",
									"text" : "change"
								}

							}
, 							{
								"box" : 								{
									"id" : "obj-21",
									"maxclass" : "toggle",
									"numinlets" : 1,
									"numoutlets" : 1,
									"outlettype" : [ "int" ],
									"parameter_enable" : 0,
									"patching_rect" : [ 255.0, 541.0, 24.0, 24.0 ],
									"style" : ""
								}

							}
, 							{
								"box" : 								{
									"id" : "obj-19",
									"maxclass" : "newobj",
									"numinlets" : 2,
									"numoutlets" : 1,
									"outlettype" : [ "int" ],
									"patching_rect" : [ 255.0, 509.0, 34.0, 22.0 ],
									"style" : "",
									"text" : "> 50"
								}

							}
, 							{
								"box" : 								{
									"bgcolor" : [ 0.095481, 0.100396, 0.100293, 1.0 ],
									"id" : "obj-18",
									"knobcolor" : [ 1.0, 1.0, 1.0, 1.0 ],
									"knobshape" : 5,
									"maxclass" : "slider",
									"numinlets" : 1,
									"numoutlets" : 1,
									"outlettype" : [ "" ],
									"parameter_enable" : 0,
									"patching_rect" : [ 294.0, 424.0, 53.0, 73.0 ],
									"presentation" : 1,
									"presentation_rect" : [ 70.0, 23.0, 45.0, 137.0 ],
									"size" : 255.0,
									"style" : "",
									"thickness" : 25.0
								}

							}
, 							{
								"box" : 								{
									"fontsize" : 16.0,
									"id" : "obj-55",
									"maxclass" : "number",
									"maximum" : 100,
									"minimum" : 0,
									"numinlets" : 1,
									"numoutlets" : 2,
									"outlettype" : [ "", "bang" ],
									"parameter_enable" : 0,
									"patching_rect" : [ 271.0, 78.0, 57.0, 26.0 ],
									"presentation" : 1,
									"presentation_rect" : [ 125.0, 23.0, 57.0, 26.0 ],
									"style" : ""
								}

							}
, 							{
								"box" : 								{
									"bgcolor" : [ 0.095481, 0.100396, 0.100293, 1.0 ],
									"id" : "obj-45",
									"knobcolor" : [ 1.0, 1.0, 1.0, 1.0 ],
									"knobshape" : 5,
									"maxclass" : "slider",
									"numinlets" : 1,
									"numoutlets" : 1,
									"outlettype" : [ "" ],
									"parameter_enable" : 0,
									"patching_rect" : [ 236.0, 424.0, 53.0, 73.0 ],
									"presentation" : 1,
									"presentation_rect" : [ 24.0, 23.0, 45.0, 137.0 ],
									"size" : 255.0,
									"style" : "",
									"thickness" : 25.0
								}

							}
, 							{
								"box" : 								{
									"id" : "obj-43",
									"maxclass" : "newobj",
									"numinlets" : 1,
									"numoutlets" : 4,
									"outlettype" : [ "int", "int", "int", "int" ],
									"patching_rect" : [ 159.0, 234.0, 89.0, 22.0 ],
									"style" : "",
									"text" : "unpack 0 0 0 0"
								}

							}
, 							{
								"box" : 								{
									"id" : "obj-42",
									"int" : 1,
									"maxclass" : "gswitch2",
									"numinlets" : 2,
									"numoutlets" : 2,
									"outlettype" : [ "", "" ],
									"parameter_enable" : 0,
									"patching_rect" : [ 216.0, 346.0, 39.0, 32.0 ],
									"style" : ""
								}

							}
, 							{
								"box" : 								{
									"id" : "obj-39",
									"maxclass" : "newobj",
									"numinlets" : 2,
									"numoutlets" : 1,
									"outlettype" : [ "float" ],
									"patching_rect" : [ 236.0, 386.0, 34.0, 22.0 ],
									"style" : "",
									"text" : "/ 30."
								}

							}
, 							{
								"box" : 								{
									"id" : "obj-38",
									"maxclass" : "newobj",
									"numinlets" : 2,
									"numoutlets" : 2,
									"outlettype" : [ "", "" ],
									"patching_rect" : [ 163.0, 300.0, 45.0, 22.0 ],
									"style" : "",
									"text" : "zl sum"
								}

							}
, 							{
								"box" : 								{
									"id" : "obj-37",
									"maxclass" : "newobj",
									"numinlets" : 2,
									"numoutlets" : 2,
									"outlettype" : [ "", "" ],
									"patching_rect" : [ 159.0, 269.0, 76.0, 22.0 ],
									"style" : "",
									"text" : "zl stream 30"
								}

							}
, 							{
								"box" : 								{
									"id" : "obj-11",
									"maxclass" : "newobj",
									"numinlets" : 1,
									"numoutlets" : 4,
									"outlettype" : [ "", "", "", "" ],
									"patching_rect" : [ 108.0, 198.0, 95.0, 22.0 ],
									"style" : "",
									"text" : "jit.3m @adapt 1"
								}

							}
, 							{
								"box" : 								{
									"angle" : 270.0,
									"bgcolor" : [ 1.0, 1.0, 1.0, 1.0 ],
									"bordercolor" : [ 0.0, 0.0, 0.0, 1.0 ],
									"id" : "obj-13",
									"maxclass" : "panel",
									"mode" : 0,
									"numinlets" : 1,
									"numoutlets" : 0,
									"patching_rect" : [ 53.0, 606.0, 128.0, 128.0 ],
									"presentation" : 1,
									"presentation_rect" : [ 16.0, 16.0, 196.0, 172.0 ],
									"proportion" : 0.39,
									"rounded" : 0,
									"style" : ""
								}

							}
, 							{
								"box" : 								{
									"comment" : "",
									"id" : "obj-5",
									"index" : 1,
									"maxclass" : "outlet",
									"numinlets" : 1,
									"numoutlets" : 0,
									"patching_rect" : [ 124.5, 819.0, 30.0, 30.0 ],
									"style" : ""
								}

							}
, 							{
								"box" : 								{
									"comment" : "",
									"id" : "obj-1",
									"index" : 1,
									"maxclass" : "inlet",
									"numinlets" : 0,
									"numoutlets" : 1,
									"outlettype" : [ "jit_matrix" ],
									"patching_rect" : [ 92.0, 34.0, 30.0, 30.0 ],
									"style" : ""
								}

							}
 ],
						"lines" : [ 							{
								"patchline" : 								{
									"destination" : [ "obj-7", 0 ],
									"source" : [ "obj-1", 0 ]
								}

							}
, 							{
								"patchline" : 								{
									"destination" : [ "obj-43", 0 ],
									"source" : [ "obj-11", 1 ]
								}

							}
, 							{
								"patchline" : 								{
									"destination" : [ "obj-18", 0 ],
									"source" : [ "obj-12", 0 ]
								}

							}
, 							{
								"patchline" : 								{
									"destination" : [ "obj-19", 1 ],
									"source" : [ "obj-18", 0 ]
								}

							}
, 							{
								"patchline" : 								{
									"destination" : [ "obj-21", 0 ],
									"source" : [ "obj-19", 0 ]
								}

							}
, 							{
								"patchline" : 								{
									"destination" : [ "obj-22", 0 ],
									"source" : [ "obj-21", 0 ]
								}

							}
, 							{
								"patchline" : 								{
									"destination" : [ "obj-65", 0 ],
									"source" : [ "obj-22", 1 ]
								}

							}
, 							{
								"patchline" : 								{
									"destination" : [ "obj-67", 0 ],
									"source" : [ "obj-22", 2 ]
								}

							}
, 							{
								"patchline" : 								{
									"destination" : [ "obj-55", 0 ],
									"source" : [ "obj-3", 0 ]
								}

							}
, 							{
								"patchline" : 								{
									"destination" : [ "obj-38", 0 ],
									"source" : [ "obj-37", 0 ]
								}

							}
, 							{
								"patchline" : 								{
									"destination" : [ "obj-42", 0 ],
									"source" : [ "obj-37", 1 ]
								}

							}
, 							{
								"patchline" : 								{
									"destination" : [ "obj-42", 1 ],
									"source" : [ "obj-38", 0 ]
								}

							}
, 							{
								"patchline" : 								{
									"destination" : [ "obj-45", 0 ],
									"source" : [ "obj-39", 0 ]
								}

							}
, 							{
								"patchline" : 								{
									"destination" : [ "obj-39", 0 ],
									"source" : [ "obj-42", 1 ]
								}

							}
, 							{
								"patchline" : 								{
									"destination" : [ "obj-37", 0 ],
									"source" : [ "obj-43", 0 ]
								}

							}
, 							{
								"patchline" : 								{
									"destination" : [ "obj-19", 0 ],
									"source" : [ "obj-45", 0 ]
								}

							}
, 							{
								"patchline" : 								{
									"destination" : [ "obj-37", 1 ],
									"order" : 1,
									"source" : [ "obj-55", 0 ]
								}

							}
, 							{
								"patchline" : 								{
									"destination" : [ "obj-39", 1 ],
									"order" : 0,
									"source" : [ "obj-55", 0 ]
								}

							}
, 							{
								"patchline" : 								{
									"destination" : [ "obj-5", 0 ],
									"source" : [ "obj-63", 0 ]
								}

							}
, 							{
								"patchline" : 								{
									"destination" : [ "obj-63", 0 ],
									"source" : [ "obj-65", 0 ]
								}

							}
, 							{
								"patchline" : 								{
									"destination" : [ "obj-63", 1 ],
									"source" : [ "obj-67", 0 ]
								}

							}
, 							{
								"patchline" : 								{
									"destination" : [ "obj-11", 0 ],
									"source" : [ "obj-7", 0 ]
								}

							}
 ]
					}
,
					"patching_rect" : [ 383.5, 489.0, 232.0, 198.0 ],
					"presentation" : 1,
					"presentation_rect" : [ 204.5, 5.0, 232.0, 198.0 ],
					"viewvisibility" : 1
				}

			}
, 			{
				"box" : 				{
					"bgmode" : 0,
					"border" : 0,
					"clickthrough" : 0,
					"embed" : 1,
					"enablehscroll" : 0,
					"enablevscroll" : 0,
					"id" : "obj-19",
					"lockeddragscroll" : 0,
					"maxclass" : "bpatcher",
					"numinlets" : 1,
					"numoutlets" : 1,
					"offset" : [ 0.0, 0.0 ],
					"outlettype" : [ "" ],
					"patcher" : 					{
						"fileversion" : 1,
						"appversion" : 						{
							"major" : 7,
							"minor" : 3,
							"revision" : 4,
							"architecture" : "x86",
							"modernui" : 1
						}
,
						"rect" : [ 784.0, 78.0, 663.0, 938.0 ],
						"bglocked" : 0,
						"openinpresentation" : 1,
						"default_fontsize" : 12.0,
						"default_fontface" : 0,
						"default_fontname" : "Arial",
						"gridonopen" : 1,
						"gridsize" : [ 15.0, 15.0 ],
						"gridsnaponopen" : 1,
						"objectsnaponopen" : 1,
						"statusbarvisible" : 2,
						"toolbarvisible" : 1,
						"lefttoolbarpinned" : 0,
						"toptoolbarpinned" : 0,
						"righttoolbarpinned" : 0,
						"bottomtoolbarpinned" : 0,
						"toolbars_unpinned_last_save" : 0,
						"tallnewobj" : 0,
						"boxanimatetime" : 200,
						"enablehscroll" : 1,
						"enablevscroll" : 1,
						"devicewidth" : 0.0,
						"description" : "",
						"digest" : "",
						"tags" : "",
						"style" : "",
						"subpatcher_template" : "",
						"boxes" : [ 							{
								"box" : 								{
									"id" : "obj-7",
									"maxclass" : "newobj",
									"numinlets" : 1,
									"numoutlets" : 2,
									"outlettype" : [ "jit_matrix", "" ],
									"patching_rect" : [ 108.0, 166.0, 73.0, 22.0 ],
									"style" : "",
									"text" : "jit.rgb2luma"
								}

							}
, 							{
								"box" : 								{
									"id" : "obj-3",
									"maxclass" : "newobj",
									"numinlets" : 1,
									"numoutlets" : 1,
									"outlettype" : [ "" ],
									"patching_rect" : [ 271.0, 46.0, 79.0, 22.0 ],
									"style" : "",
									"text" : "loadmess 15"
								}

							}
, 							{
								"box" : 								{
									"id" : "obj-12",
									"maxclass" : "newobj",
									"numinlets" : 1,
									"numoutlets" : 1,
									"outlettype" : [ "" ],
									"patching_rect" : [ 294.0, 386.0, 85.0, 22.0 ],
									"style" : "",
									"text" : "loadmess 127"
								}

							}
, 							{
								"box" : 								{
									"id" : "obj-9",
									"linecount" : 2,
									"maxclass" : "comment",
									"numinlets" : 1,
									"numoutlets" : 0,
									"patching_rect" : [ 86.0, 623.0, 75.0, 33.0 ],
									"presentation" : 1,
									"presentation_rect" : [ 24.0, 162.0, 112.0, 20.0 ],
									"style" : "",
									"text" : "motion | threshhold"
								}

							}
, 							{
								"box" : 								{
									"id" : "obj-110",
									"linecount" : 2,
									"maxclass" : "comment",
									"numinlets" : 1,
									"numoutlets" : 0,
									"patching_rect" : [ 271.0, 264.0, 121.0, 33.0 ],
									"presentation" : 1,
									"presentation_linecount" : 2,
									"presentation_rect" : [ 125.0, 51.0, 81.0, 33.0 ],
									"style" : "",
									"text" : "# of samples to smooth"
								}

							}
, 							{
								"box" : 								{
									"id" : "obj-67",
									"maxclass" : "button",
									"numinlets" : 1,
									"numoutlets" : 1,
									"outlettype" : [ "bang" ],
									"patching_rect" : [ 281.0, 602.0, 24.0, 24.0 ],
									"style" : ""
								}

							}
, 							{
								"box" : 								{
									"id" : "obj-65",
									"maxclass" : "button",
									"numinlets" : 1,
									"numoutlets" : 1,
									"outlettype" : [ "bang" ],
									"patching_rect" : [ 255.0, 602.0, 24.0, 24.0 ],
									"style" : ""
								}

							}
, 							{
								"box" : 								{
									"id" : "obj-63",
									"maxclass" : "newobj",
									"numinlets" : 3,
									"numoutlets" : 1,
									"outlettype" : [ "" ],
									"patching_rect" : [ 255.0, 633.0, 90.0, 22.0 ],
									"saved_object_attributes" : 									{
										"filename" : "timestamp.js",
										"parameter_enable" : 0
									}
,
									"style" : "",
									"text" : "js timestamp.js"
								}

							}
, 							{
								"box" : 								{
									"id" : "obj-22",
									"maxclass" : "newobj",
									"numinlets" : 1,
									"numoutlets" : 3,
									"outlettype" : [ "", "int", "int" ],
									"patching_rect" : [ 255.0, 572.0, 50.0, 22.0 ],
									"style" : "",
									"text" : "change"
								}

							}
, 							{
								"box" : 								{
									"id" : "obj-21",
									"maxclass" : "toggle",
									"numinlets" : 1,
									"numoutlets" : 1,
									"outlettype" : [ "int" ],
									"parameter_enable" : 0,
									"patching_rect" : [ 255.0, 541.0, 24.0, 24.0 ],
									"style" : ""
								}

							}
, 							{
								"box" : 								{
									"id" : "obj-19",
									"maxclass" : "newobj",
									"numinlets" : 2,
									"numoutlets" : 1,
									"outlettype" : [ "int" ],
									"patching_rect" : [ 255.0, 509.0, 34.0, 22.0 ],
									"style" : "",
									"text" : "> 50"
								}

							}
, 							{
								"box" : 								{
									"bgcolor" : [ 0.095481, 0.100396, 0.100293, 1.0 ],
									"id" : "obj-18",
									"knobcolor" : [ 1.0, 1.0, 1.0, 1.0 ],
									"knobshape" : 5,
									"maxclass" : "slider",
									"numinlets" : 1,
									"numoutlets" : 1,
									"outlettype" : [ "" ],
									"parameter_enable" : 0,
									"patching_rect" : [ 294.0, 424.0, 53.0, 73.0 ],
									"presentation" : 1,
									"presentation_rect" : [ 70.0, 23.0, 45.0, 137.0 ],
									"size" : 255.0,
									"style" : "",
									"thickness" : 25.0
								}

							}
, 							{
								"box" : 								{
									"fontsize" : 16.0,
									"id" : "obj-55",
									"maxclass" : "number",
									"maximum" : 100,
									"minimum" : 0,
									"numinlets" : 1,
									"numoutlets" : 2,
									"outlettype" : [ "", "bang" ],
									"parameter_enable" : 0,
									"patching_rect" : [ 271.0, 78.0, 57.0, 26.0 ],
									"presentation" : 1,
									"presentation_rect" : [ 125.0, 23.0, 57.0, 26.0 ],
									"style" : ""
								}

							}
, 							{
								"box" : 								{
									"bgcolor" : [ 0.095481, 0.100396, 0.100293, 1.0 ],
									"id" : "obj-45",
									"knobcolor" : [ 1.0, 1.0, 1.0, 1.0 ],
									"knobshape" : 5,
									"maxclass" : "slider",
									"numinlets" : 1,
									"numoutlets" : 1,
									"outlettype" : [ "" ],
									"parameter_enable" : 0,
									"patching_rect" : [ 236.0, 424.0, 53.0, 73.0 ],
									"presentation" : 1,
									"presentation_rect" : [ 24.0, 23.0, 45.0, 137.0 ],
									"size" : 255.0,
									"style" : "",
									"thickness" : 25.0
								}

							}
, 							{
								"box" : 								{
									"id" : "obj-43",
									"maxclass" : "newobj",
									"numinlets" : 1,
									"numoutlets" : 4,
									"outlettype" : [ "int", "int", "int", "int" ],
									"patching_rect" : [ 159.0, 234.0, 89.0, 22.0 ],
									"style" : "",
									"text" : "unpack 0 0 0 0"
								}

							}
, 							{
								"box" : 								{
									"id" : "obj-42",
									"int" : 1,
									"maxclass" : "gswitch2",
									"numinlets" : 2,
									"numoutlets" : 2,
									"outlettype" : [ "", "" ],
									"parameter_enable" : 0,
									"patching_rect" : [ 216.0, 346.0, 39.0, 32.0 ],
									"style" : ""
								}

							}
, 							{
								"box" : 								{
									"id" : "obj-39",
									"maxclass" : "newobj",
									"numinlets" : 2,
									"numoutlets" : 1,
									"outlettype" : [ "float" ],
									"patching_rect" : [ 236.0, 386.0, 34.0, 22.0 ],
									"style" : "",
									"text" : "/ 30."
								}

							}
, 							{
								"box" : 								{
									"id" : "obj-38",
									"maxclass" : "newobj",
									"numinlets" : 2,
									"numoutlets" : 2,
									"outlettype" : [ "", "" ],
									"patching_rect" : [ 163.0, 300.0, 45.0, 22.0 ],
									"style" : "",
									"text" : "zl sum"
								}

							}
, 							{
								"box" : 								{
									"id" : "obj-37",
									"maxclass" : "newobj",
									"numinlets" : 2,
									"numoutlets" : 2,
									"outlettype" : [ "", "" ],
									"patching_rect" : [ 159.0, 269.0, 76.0, 22.0 ],
									"style" : "",
									"text" : "zl stream 30"
								}

							}
, 							{
								"box" : 								{
									"id" : "obj-11",
									"maxclass" : "newobj",
									"numinlets" : 1,
									"numoutlets" : 4,
									"outlettype" : [ "", "", "", "" ],
									"patching_rect" : [ 108.0, 198.0, 95.0, 22.0 ],
									"style" : "",
									"text" : "jit.3m @adapt 1"
								}

							}
, 							{
								"box" : 								{
									"angle" : 270.0,
									"bgcolor" : [ 1.0, 1.0, 1.0, 1.0 ],
									"bordercolor" : [ 0.0, 0.0, 0.0, 1.0 ],
									"id" : "obj-13",
									"maxclass" : "panel",
									"mode" : 0,
									"numinlets" : 1,
									"numoutlets" : 0,
									"patching_rect" : [ 53.0, 606.0, 128.0, 128.0 ],
									"presentation" : 1,
									"presentation_rect" : [ 16.0, 16.0, 196.0, 172.0 ],
									"proportion" : 0.39,
									"rounded" : 0,
									"style" : ""
								}

							}
, 							{
								"box" : 								{
									"comment" : "",
									"id" : "obj-5",
									"index" : 1,
									"maxclass" : "outlet",
									"numinlets" : 1,
									"numoutlets" : 0,
									"patching_rect" : [ 124.5, 819.0, 30.0, 30.0 ],
									"style" : ""
								}

							}
, 							{
								"box" : 								{
									"comment" : "",
									"id" : "obj-1",
									"index" : 1,
									"maxclass" : "inlet",
									"numinlets" : 0,
									"numoutlets" : 1,
									"outlettype" : [ "jit_matrix" ],
									"patching_rect" : [ 92.0, 34.0, 30.0, 30.0 ],
									"style" : ""
								}

							}
 ],
						"lines" : [ 							{
								"patchline" : 								{
									"destination" : [ "obj-7", 0 ],
									"source" : [ "obj-1", 0 ]
								}

							}
, 							{
								"patchline" : 								{
									"destination" : [ "obj-43", 0 ],
									"source" : [ "obj-11", 1 ]
								}

							}
, 							{
								"patchline" : 								{
									"destination" : [ "obj-18", 0 ],
									"source" : [ "obj-12", 0 ]
								}

							}
, 							{
								"patchline" : 								{
									"destination" : [ "obj-19", 1 ],
									"source" : [ "obj-18", 0 ]
								}

							}
, 							{
								"patchline" : 								{
									"destination" : [ "obj-21", 0 ],
									"source" : [ "obj-19", 0 ]
								}

							}
, 							{
								"patchline" : 								{
									"destination" : [ "obj-22", 0 ],
									"source" : [ "obj-21", 0 ]
								}

							}
, 							{
								"patchline" : 								{
									"destination" : [ "obj-65", 0 ],
									"source" : [ "obj-22", 1 ]
								}

							}
, 							{
								"patchline" : 								{
									"destination" : [ "obj-67", 0 ],
									"source" : [ "obj-22", 2 ]
								}

							}
, 							{
								"patchline" : 								{
									"destination" : [ "obj-55", 0 ],
									"source" : [ "obj-3", 0 ]
								}

							}
, 							{
								"patchline" : 								{
									"destination" : [ "obj-38", 0 ],
									"source" : [ "obj-37", 0 ]
								}

							}
, 							{
								"patchline" : 								{
									"destination" : [ "obj-42", 0 ],
									"source" : [ "obj-37", 1 ]
								}

							}
, 							{
								"patchline" : 								{
									"destination" : [ "obj-42", 1 ],
									"source" : [ "obj-38", 0 ]
								}

							}
, 							{
								"patchline" : 								{
									"destination" : [ "obj-45", 0 ],
									"source" : [ "obj-39", 0 ]
								}

							}
, 							{
								"patchline" : 								{
									"destination" : [ "obj-39", 0 ],
									"source" : [ "obj-42", 1 ]
								}

							}
, 							{
								"patchline" : 								{
									"destination" : [ "obj-37", 0 ],
									"source" : [ "obj-43", 0 ]
								}

							}
, 							{
								"patchline" : 								{
									"destination" : [ "obj-19", 0 ],
									"source" : [ "obj-45", 0 ]
								}

							}
, 							{
								"patchline" : 								{
									"destination" : [ "obj-37", 1 ],
									"order" : 1,
									"source" : [ "obj-55", 0 ]
								}

							}
, 							{
								"patchline" : 								{
									"destination" : [ "obj-39", 1 ],
									"order" : 0,
									"source" : [ "obj-55", 0 ]
								}

							}
, 							{
								"patchline" : 								{
									"destination" : [ "obj-5", 0 ],
									"source" : [ "obj-63", 0 ]
								}

							}
, 							{
								"patchline" : 								{
									"destination" : [ "obj-63", 0 ],
									"source" : [ "obj-65", 0 ]
								}

							}
, 							{
								"patchline" : 								{
									"destination" : [ "obj-63", 1 ],
									"source" : [ "obj-67", 0 ]
								}

							}
, 							{
								"patchline" : 								{
									"destination" : [ "obj-11", 0 ],
									"source" : [ "obj-7", 0 ]
								}

							}
 ]
					}
,
					"patching_rect" : [ 119.5, 489.0, 232.0, 198.0 ],
					"presentation" : 1,
					"presentation_rect" : [ 3.5, 5.0, 232.0, 198.0 ],
					"viewvisibility" : 1
				}

			}
, 			{
				"box" : 				{
					"id" : "obj-14",
					"maxclass" : "newobj",
					"numinlets" : 1,
					"numoutlets" : 1,
					"outlettype" : [ "bang" ],
					"patching_rect" : [ 968.0, 284.0, 65.0, 22.0 ],
					"style" : "",
					"text" : "closebang"
				}

			}
, 			{
				"box" : 				{
					"id" : "obj-8",
					"maxclass" : "comment",
					"numinlets" : 1,
					"numoutlets" : 0,
					"patching_rect" : [ 625.0, 23.0, 75.0, 20.0 ],
					"presentation" : 1,
					"presentation_rect" : [ 63.0, 212.5, 75.0, 20.0 ],
					"style" : "",
					"text" : "open log file"
				}

			}
, 			{
				"box" : 				{
					"id" : "obj-4",
					"maxclass" : "button",
					"numinlets" : 1,
					"numoutlets" : 1,
					"outlettype" : [ "bang" ],
					"patching_rect" : [ 595.0, 22.0, 24.0, 24.0 ],
					"presentation" : 1,
					"presentation_rect" : [ 22.0, 206.0, 33.0, 33.0 ],
					"style" : ""
				}

			}
, 			{
				"box" : 				{
					"id" : "obj-2",
					"maxclass" : "message",
					"numinlets" : 2,
					"numoutlets" : 1,
					"outlettype" : [ "" ],
					"patching_rect" : [ 595.0, 66.0, 37.0, 22.0 ],
					"style" : "",
					"text" : "open"
				}

			}
, 			{
				"box" : 				{
					"id" : "obj-108",
					"maxclass" : "button",
					"numinlets" : 1,
					"numoutlets" : 1,
					"outlettype" : [ "bang" ],
					"patching_rect" : [ 801.5, 263.0, 24.0, 24.0 ],
					"style" : ""
				}

			}
, 			{
				"box" : 				{
					"id" : "obj-106",
					"maxclass" : "message",
					"numinlets" : 2,
					"numoutlets" : 1,
					"outlettype" : [ "" ],
					"patching_rect" : [ 593.0, 213.0, 51.0, 22.0 ],
					"style" : "",
					"text" : "read $1"
				}

			}
, 			{
				"box" : 				{
					"id" : "obj-104",
					"maxclass" : "newobj",
					"numinlets" : 3,
					"numoutlets" : 1,
					"outlettype" : [ "" ],
					"patching_rect" : [ 722.5, 334.0, 90.0, 22.0 ],
					"saved_object_attributes" : 					{
						"filename" : "timestamp.js",
						"parameter_enable" : 0
					}
,
					"style" : "",
					"text" : "js timestamp.js"
				}

			}
, 			{
				"box" : 				{
					"id" : "obj-105",
					"maxclass" : "newobj",
					"numinlets" : 3,
					"numoutlets" : 2,
					"outlettype" : [ "", "" ],
					"patching_rect" : [ 609.0, 369.0, 246.0, 22.0 ],
					"style" : "",
					"text" : "combine interactionlog- date .txt @triggers 1"
				}

			}
, 			{
				"box" : 				{
					"id" : "obj-94",
					"maxclass" : "newobj",
					"numinlets" : 3,
					"numoutlets" : 1,
					"outlettype" : [ "" ],
					"patching_rect" : [ 706.5, 149.0, 90.0, 22.0 ],
					"saved_object_attributes" : 					{
						"filename" : "timestamp.js",
						"parameter_enable" : 0
					}
,
					"style" : "",
					"text" : "js timestamp.js"
				}

			}
, 			{
				"box" : 				{
					"id" : "obj-91",
					"maxclass" : "newobj",
					"numinlets" : 3,
					"numoutlets" : 2,
					"outlettype" : [ "", "" ],
					"patching_rect" : [ 593.0, 184.0, 246.0, 22.0 ],
					"style" : "",
					"text" : "combine interactionlog- date .txt @triggers 1"
				}

			}
, 			{
				"box" : 				{
					"id" : "obj-81",
					"maxclass" : "newobj",
					"numinlets" : 1,
					"numoutlets" : 1,
					"outlettype" : [ "bang" ],
					"patching_rect" : [ 777.5, 109.0, 60.0, 22.0 ],
					"style" : "",
					"text" : "loadbang"
				}

			}
, 			{
				"box" : 				{
					"id" : "obj-71",
					"maxclass" : "newobj",
					"numinlets" : 0,
					"numoutlets" : 1,
					"outlettype" : [ "" ],
					"patching_rect" : [ 754.0, 263.0, 37.0, 22.0 ],
					"style" : "",
					"text" : "r pwr"
				}

			}
, 			{
				"box" : 				{
					"id" : "obj-70",
					"maxclass" : "newobj",
					"numinlets" : 2,
					"numoutlets" : 1,
					"outlettype" : [ "bang" ],
					"patching_rect" : [ 754.0, 291.0, 85.0, 22.0 ],
					"style" : "",
					"text" : "qmetro 30000"
				}

			}
, 			{
				"box" : 				{
					"id" : "obj-62",
					"maxclass" : "message",
					"numinlets" : 2,
					"numoutlets" : 1,
					"outlettype" : [ "" ],
					"patching_rect" : [ 609.0, 400.0, 53.0, 22.0 ],
					"style" : "",
					"text" : "write $1"
				}

			}
, 			{
				"box" : 				{
					"id" : "obj-54",
					"maxclass" : "message",
					"numinlets" : 2,
					"numoutlets" : 1,
					"outlettype" : [ "" ],
					"patching_rect" : [ 802.0, 149.0, 37.0, 22.0 ],
					"style" : "",
					"text" : "clear"
				}

			}
, 			{
				"box" : 				{
					"id" : "obj-52",
					"maxclass" : "newobj",
					"numinlets" : 1,
					"numoutlets" : 3,
					"outlettype" : [ "", "bang", "int" ],
					"patching_rect" : [ 452.0, 268.0, 40.0, 22.0 ],
					"style" : "",
					"text" : "text"
				}

			}
, 			{
				"box" : 				{
					"id" : "obj-74",
					"maxclass" : "newobj",
					"numinlets" : 1,
					"numoutlets" : 7,
					"outlettype" : [ "jit_matrix", "jit_matrix", "jit_matrix", "jit_matrix", "jit_matrix", "jit_matrix", "" ],
					"patching_rect" : [ 164.0, 149.0, 136.0, 22.0 ],
					"style" : "",
					"text" : "jit.scissors @columns 6"
				}

			}
, 			{
				"box" : 				{
					"id" : "obj-6",
					"maxclass" : "newobj",
					"numinlets" : 1,
					"numoutlets" : 7,
					"outlettype" : [ "jit_matrix", "jit_matrix", "jit_matrix", "jit_matrix", "jit_matrix", "jit_matrix", "" ],
					"patching_rect" : [ 131.0, 179.0, 136.0, 22.0 ],
					"style" : "",
					"text" : "jit.scissors @columns 6"
				}

			}
, 			{
				"box" : 				{
					"comment" : "",
					"id" : "obj-78",
					"index" : 1,
					"maxclass" : "inlet",
					"numinlets" : 0,
					"numoutlets" : 1,
					"outlettype" : [ "" ],
					"patching_rect" : [ 131.0, 40.0, 30.0, 30.0 ],
					"style" : ""
				}

			}
, 			{
				"box" : 				{
					"comment" : "",
					"id" : "obj-80",
					"index" : 2,
					"maxclass" : "inlet",
					"numinlets" : 0,
					"numoutlets" : 1,
					"outlettype" : [ "" ],
					"patching_rect" : [ 164.0, 40.0, 30.0, 30.0 ],
					"style" : ""
				}

			}
 ],
		"lines" : [ 			{
				"patchline" : 				{
					"destination" : [ "obj-69", 0 ],
					"source" : [ "obj-10", 0 ]
				}

			}
, 			{
				"patchline" : 				{
					"destination" : [ "obj-105", 1 ],
					"source" : [ "obj-104", 0 ]
				}

			}
, 			{
				"patchline" : 				{
					"destination" : [ "obj-62", 0 ],
					"source" : [ "obj-105", 0 ]
				}

			}
, 			{
				"patchline" : 				{
					"destination" : [ "obj-52", 0 ],
					"source" : [ "obj-106", 0 ]
				}

			}
, 			{
				"patchline" : 				{
					"destination" : [ "obj-104", 2 ],
					"source" : [ "obj-108", 0 ]
				}

			}
, 			{
				"patchline" : 				{
					"destination" : [ "obj-108", 0 ],
					"source" : [ "obj-14", 0 ]
				}

			}
, 			{
				"patchline" : 				{
					"destination" : [ "obj-10", 0 ],
					"source" : [ "obj-19", 0 ]
				}

			}
, 			{
				"patchline" : 				{
					"destination" : [ "obj-52", 0 ],
					"source" : [ "obj-2", 0 ]
				}

			}
, 			{
				"patchline" : 				{
					"destination" : [ "obj-22", 0 ],
					"source" : [ "obj-21", 0 ]
				}

			}
, 			{
				"patchline" : 				{
					"destination" : [ "obj-69", 0 ],
					"source" : [ "obj-22", 0 ]
				}

			}
, 			{
				"patchline" : 				{
					"destination" : [ "obj-2", 0 ],
					"source" : [ "obj-4", 0 ]
				}

			}
, 			{
				"patchline" : 				{
					"destination" : [ "obj-52", 0 ],
					"source" : [ "obj-54", 0 ]
				}

			}
, 			{
				"patchline" : 				{
					"destination" : [ "obj-19", 0 ],
					"source" : [ "obj-6", 0 ]
				}

			}
, 			{
				"patchline" : 				{
					"destination" : [ "obj-52", 0 ],
					"source" : [ "obj-62", 0 ]
				}

			}
, 			{
				"patchline" : 				{
					"destination" : [ "obj-52", 0 ],
					"source" : [ "obj-69", 0 ]
				}

			}
, 			{
				"patchline" : 				{
					"destination" : [ "obj-104", 2 ],
					"source" : [ "obj-70", 0 ]
				}

			}
, 			{
				"patchline" : 				{
					"destination" : [ "obj-70", 0 ],
					"source" : [ "obj-71", 0 ]
				}

			}
, 			{
				"patchline" : 				{
					"destination" : [ "obj-21", 0 ],
					"source" : [ "obj-74", 0 ]
				}

			}
, 			{
				"patchline" : 				{
					"destination" : [ "obj-6", 0 ],
					"source" : [ "obj-78", 0 ]
				}

			}
, 			{
				"patchline" : 				{
					"destination" : [ "obj-74", 0 ],
					"source" : [ "obj-80", 0 ]
				}

			}
, 			{
				"patchline" : 				{
					"destination" : [ "obj-54", 0 ],
					"source" : [ "obj-81", 0 ]
				}

			}
, 			{
				"patchline" : 				{
					"destination" : [ "obj-106", 0 ],
					"source" : [ "obj-91", 0 ]
				}

			}
, 			{
				"patchline" : 				{
					"destination" : [ "obj-91", 1 ],
					"source" : [ "obj-94", 0 ]
				}

			}
 ]
	}

}
